# xmcd
#
# Track frame offsets: 
#        150
#        16853
#        32098
#        48720
#        68123
#        83773
#        98883
#        117260
#        133018
#        151503
#        170717
#        198058
#        226857
#        239861
#        252244
#        270054
#        286190
#        307969
#
# Disc length: 4280 seconds
#
# Revision: 2
# Processed by: cddbd v1.4PL0 Copyright (c) Steve Scherf et al.
# Submitted via: ExactAudioCopy v0.95a3
#
DISCID=e510b612
DTITLE=Various Artist - Boot Scootin' Country Disc 7
DYEAR=1995
DGENRE=Country
TTITLE0=Garth Brooks - The Dance
TTITLE1=LeAnn Rimes - The Light In Your Eyes
TTITLE2=Charlie Daniels Band - Drinkin' My Baby Goodbye
TTITLE3=Tim McGraw - Indian Outlaw [Dance Mix]
TTITLE4=Mavericks - Missing You
TTITLE5=Confederate Railroad - Queen Of Memphis
TTITLE6=Asleep At The Wheel - San Antonio Rose
TTITLE7=Reba McEntire - I'd Rather Ride Around With You
TTITLE8=Alan Jackson - Chattahoochee [Club Mix 2]
TTITLE9=Tracy Byrd - The Keeper Of The Stars [New Single Version]
TTITLE10=Brooks and Dunn - Boot Scootin' Boogie [Remix]
TTITLE11=Brooks and Dunn - Boot Scootin' Boogie [Club Mix]
TTITLE12=George Strait - Amarillo By Morning
TTITLE13=Clint Black - The Gulf Of Mexico
TTITLE14=Toby Keith - We Were In Love [Radio Edit]
TTITLE15=Billy Joe Royal - Boardwalk Angel
TTITLE16=Shania Twain - Whose Bed Have Your Boots Been Under [Dance Mi
TTITLE16=x]
TTITLE17=Ty England - Kick Back
EXTD=
EXTT0=
EXTT1=
EXTT2=
EXTT3=
EXTT4=
EXTT5=
EXTT6=
EXTT7=
EXTT8=
EXTT9=
EXTT10=
EXTT11=
EXTT12=
EXTT13=
EXTT14=
EXTT15=
EXTT16=
EXTT17=
PLAYORDER=
